# xmcd
#
# Track frame offsets:
#	150
#	33869
#	58062
#	75569
#	98209
#	130894
#	161841
#	197523
#	212691
#	257838
#	280760
#
# Disc length: 3984 seconds
#
# Revision: 0
# Processed by: cddbd v1.5.1PL0 Copyright (c) Steve Scherf et al.
# Submitted via: EasyCDDAExtractor 5.0.4.1
#
DISCID=950f8e0b
DTITLE=Black Sabbath - Live in Chicago'83 - CD 2
DYEAR=1983
DGENRE=Hard Rock
TTITLE0=Black Sabbath
TTITLE1=Smoke On The Water
TTITLE2=Paranoid
TTITLE3=Hot Line
TTITLE4=War Pigs
TTITLE5=Black Sabbath
TTITLE6=Zero The Hero
TTITLE7=Digital Bitch
TTITLE8=Iron Man
TTITLE9=Smoke On The Water
TTITLE10=Paranoid
EXTD=segurarte@hotmail.com\n
EXTT0=
EXTT1=
EXTT2=
EXTT3=
EXTT4=
EXTT5=
EXTT6=
EXTT7=
EXTT8=
EXTT9=
EXTT10=
PLAYORDER=
